<svg aria-hidden="true" style="position: absolute; width: 0; height: 0; overflow: hidden;" version="1.1" xmlns="http://www.w3.org/2000/svg" xmlns:xlink="http://www.w3.org/1999/xlink">
<defs>
<symbol id="icon-star-outlined" viewBox="0 0 20 20">
<path d="M18.8 8.022h-6.413l-2.387-6.722-2.389 6.722h-6.412l5.232 3.947-1.871 6.929 5.44-4.154 5.438 4.154-1.869-6.929 5.231-3.947zM10 12.783l-3.014 2.5 1.243-3.562-2.851-2.3 3.522 0.101 1.1-4.040 1.099 4.040 3.521-0.101-2.851 2.3 1.243 3.562-3.012-2.5z"></path>
</symbol>
<symbol id="icon-star" viewBox="0 0 32 32">
<path d="M31.881 12.557c-0.277-0.799-0.988-1.384-1.844-1.511l-8.326-1.238-3.619-7.514c-0.381-0.789-1.196-1.294-2.092-1.294s-1.711 0.505-2.092 1.294l-3.619 7.514-8.327 1.238c-0.855 0.127-1.566 0.712-1.842 1.511-0.275 0.801-0.067 1.683 0.537 2.285l6.102 6.092-1.415 8.451c-0.144 0.851 0.225 1.705 0.948 2.203 0.397 0.273 0.864 0.412 1.331 0.412 0.384 0 0.769-0.094 1.118-0.281l7.259-3.908 7.26 3.908c0.349 0.187 0.734 0.281 1.117 0.281 0.467 0 0.934-0.139 1.332-0.412 0.723-0.498 1.090-1.352 0.947-2.203l-1.416-8.451 6.104-6.092c0.603-0.603 0.81-1.485 0.537-2.285zM23.588 19.363c-0.512 0.51-0.744 1.229-0.627 1.934l1.416 8.451-7.26-3.906c-0.348-0.188-0.732-0.281-1.118-0.281-0.384 0-0.769 0.094-1.117 0.281l-7.26 3.906 1.416-8.451c0.118-0.705-0.114-1.424-0.626-1.934l-6.102-6.092 8.326-1.24c0.761-0.113 1.416-0.589 1.743-1.268l3.621-7.512 3.62 7.513c0.328 0.679 0.982 1.154 1.742 1.268l8.328 1.24-6.102 6.091z"></path>
</symbol>
<symbol id="icon-paperplane" viewBox="0 0 32 32">
<path d="M31.543 0.16c-0.166-0.107-0.355-0.16-0.543-0.16-0.193 0-0.387 0.055-0.555 0.168l-30 20c-0.309 0.205-0.479 0.566-0.439 0.936 0.038 0.369 0.278 0.688 0.623 0.824l7.824 3.131 3.679 6.438c0.176 0.309 0.503 0.5 0.857 0.504 0.004 0 0.007 0 0.011 0 0.351 0 0.677-0.186 0.857-0.486l2.077-3.463 9.695 3.877c0.119 0.048 0.244 0.071 0.371 0.071 0.17 0 0.338-0.043 0.49-0.129 0.264-0.148 0.445-0.408 0.496-0.707l5-30c0.065-0.393-0.109-0.787-0.443-1.004zM3.136 20.777l23.175-15.451-16.85 18.037c-0.089-0.053-0.168-0.123-0.266-0.162l-6.059-2.424zM10.189 24.066c-0.002-0.004-0.005-0.006-0.007-0.010l18.943-20.275-16.149 25.162-2.787-4.877zM25.217 29.609l-8.541-3.416c-0.203-0.080-0.414-0.107-0.623-0.119l13.152-20.388-3.988 23.923z"></path>
</symbol>
<symbol id="icon-user" viewBox="0 0 12 16">
<path d="M6 8c-3.313 0-6 2.688-6 6 0 1.105 0.894 2 2 2h8c1.105 0 2-0.895 2-2 0-3.313-2.688-6-6-6zM3 3c0-1.657 1.343-3 3-3s3 1.343 3 3c0 1.657-1.343 3-3 3s-3-1.343-3-3z"></path>
</symbol>
<symbol id="icon-cart" viewBox="0 0 16 16">
<path d="M6 14.5c0 0.828-0.672 1.5-1.5 1.5s-1.5-0.672-1.5-1.5c0-0.828 0.672-1.5 1.5-1.5s1.5 0.672 1.5 1.5z"></path>
<path d="M16 14.5c0 0.828-0.672 1.5-1.5 1.5s-1.5-0.672-1.5-1.5c0-0.828 0.672-1.5 1.5-1.5s1.5 0.672 1.5 1.5z"></path>
<path d="M16 8v-6h-12c0-0.552-0.448-1-1-1h-3v1h2l0.751 6.438c-0.458 0.367-0.751 0.93-0.751 1.562 0 1.105 0.895 2 2 2h12v-1h-12c-0.552 0-1-0.448-1-1 0-0.003 0-0.007 0-0.010l13-1.99z"></path>
</symbol>
<symbol id="icon-envelop" viewBox="0 0 16 16">
<path d="M14.5 2h-13c-0.825 0-1.5 0.675-1.5 1.5v10c0 0.825 0.675 1.5 1.5 1.5h13c0.825 0 1.5-0.675 1.5-1.5v-10c0-0.825-0.675-1.5-1.5-1.5zM6.23 8.6l-4.23 3.295v-7.838l4.23 4.543zM2.756 4h10.488l-5.244 3.938-5.244-3.938zM6.395 8.777l1.605 1.723 1.605-1.723 3.29 4.223h-9.79l3.29-4.223zM9.77 8.6l4.23-4.543v7.838l-4.23-3.295z"></path>
</symbol>
<symbol id="icon-search" viewBox="0 0 16 16">
<path d="M15.504 13.616l-3.79-3.223c-0.392-0.353-0.811-0.514-1.149-0.499 0.895-1.048 1.435-2.407 1.435-3.893 0-3.314-2.686-6-6-6s-6 2.686-6 6 2.686 6 6 6c1.486 0 2.845-0.54 3.893-1.435-0.016 0.338 0.146 0.757 0.499 1.149l3.223 3.79c0.552 0.613 1.453 0.665 2.003 0.115s0.498-1.452-0.115-2.003zM6 10c-2.209 0-4-1.791-4-4s1.791-4 4-4 4 1.791 4 4-1.791 4-4 4z"></path>
</symbol>
<symbol id="icon-earth" viewBox="0 0 16 16">
<path d="M8 0c-4.418 0-8 3.582-8 8s3.582 8 8 8 8-3.582 8-8-3.582-8-8-8zM8 15c-0.984 0-1.92-0.203-2.769-0.57l3.643-4.098c0.081-0.092 0.126-0.21 0.126-0.332v-1.5c0-0.276-0.224-0.5-0.5-0.5-1.765 0-3.628-1.835-3.646-1.854-0.094-0.094-0.221-0.146-0.354-0.146h-2c-0.276 0-0.5 0.224-0.5 0.5v3c0 0.189 0.107 0.363 0.276 0.447l1.724 0.862v2.936c-1.813-1.265-3-3.366-3-5.745 0-1.074 0.242-2.091 0.674-3h1.826c0.133 0 0.26-0.053 0.354-0.146l2-2c0.094-0.094 0.146-0.221 0.146-0.354v-1.21c0.634-0.189 1.305-0.29 2-0.29 1.1 0 2.141 0.254 3.067 0.706-0.065 0.055-0.128 0.112-0.188 0.172-0.567 0.567-0.879 1.32-0.879 2.121s0.312 1.555 0.879 2.121c0.569 0.569 1.332 0.879 2.119 0.879 0.049 0 0.099-0.001 0.149-0.004 0.216 0.809 0.605 2.917-0.131 5.818-0.007 0.027-0.011 0.055-0.013 0.082-1.271 1.298-3.042 2.104-5.002 2.104z"></path>
</symbol>
<symbol id="icon-star-empty" viewBox="0 0 16 16">
<path d="M16 6.204l-5.528-0.803-2.472-5.009-2.472 5.009-5.528 0.803 4 3.899-0.944 5.505 4.944-2.599 4.944 2.599-0.944-5.505 4-3.899zM8 11.773l-3.492 1.836 0.667-3.888-2.825-2.753 3.904-0.567 1.746-3.537 1.746 3.537 3.904 0.567-2.825 2.753 0.667 3.888-3.492-1.836z"></path>
</symbol>
<symbol id="icon-filter" viewBox="0 0 16 16">
<path d="M8 0c-4.418 0-8 1.119-8 2.5v1.5l6 6v5c0 0.552 0.895 1 2 1s2-0.448 2-1v-5l6-6v-1.5c0-1.381-3.582-2.5-8-2.5zM1.475 2.169c0.374-0.213 0.9-0.416 1.52-0.586 1.374-0.376 3.152-0.583 5.005-0.583s3.631 0.207 5.005 0.583c0.62 0.17 1.146 0.372 1.52 0.586 0.247 0.141 0.38 0.26 0.442 0.331-0.062 0.071-0.195 0.19-0.442 0.331-0.374 0.213-0.9 0.416-1.52 0.586-1.374 0.376-3.152 0.583-5.005 0.583s-3.631-0.207-5.005-0.583c-0.62-0.17-1.146-0.372-1.52-0.586-0.247-0.141-0.38-0.26-0.442-0.331 0.062-0.071 0.195-0.19 0.442-0.331z"></path>
</symbol>
<symbol id="icon-terminal" viewBox="0 0 16 16">
<path d="M0 1v14h16v-14h-16zM15 14h-14v-12h14v12zM14 3h-12v10h12v-10zM7 8h-1v1h-1v1h-1v-1h1v-1h1v-1h-1v-1h-1v-1h1v1h1v1h1v1zM11 10h-3v-1h3v1z"></path>
</symbol>
<symbol id="icon-share2" viewBox="0 0 16 16">
<path d="M13.5 11c-0.706 0-1.342 0.293-1.797 0.763l-6.734-3.367c0.021-0.129 0.032-0.261 0.032-0.396s-0.011-0.267-0.032-0.396l6.734-3.367c0.455 0.47 1.091 0.763 1.797 0.763 1.381 0 2.5-1.119 2.5-2.5s-1.119-2.5-2.5-2.5-2.5 1.119-2.5 2.5c0 0.135 0.011 0.267 0.031 0.396l-6.734 3.367c-0.455-0.47-1.091-0.763-1.797-0.763-1.381 0-2.5 1.119-2.5 2.5s1.119 2.5 2.5 2.5c0.706 0 1.343-0.293 1.797-0.763l6.734 3.367c-0.021 0.129-0.031 0.261-0.031 0.396 0 1.381 1.119 2.5 2.5 2.5s2.5-1.119 2.5-2.5c0-1.381-1.119-2.5-2.5-2.5z"></path>
</symbol>
</defs>
</svg>
